<svg id="Capa_1" data-name="Capa 1" xmlns="http://www.w3.org/2000/svg" viewBox="0 0 476.83 161.66"><defs><style>.cls-1{fill:#213a7d;}.cls-2{fill:#126aa7;}</style></defs><path class="cls-1" d="M258.19,111c0-8.07-.45-16.16.14-24.22.51-6.84,3.92-13,15.3-15.62a69.81,69.81,0,0,1,14-1.67,110.56,110.56,0,0,1,22.14,1.21c10.44,1.86,15.45,6.54,17.16,13.05a29.31,29.31,0,0,1,.82,7.68c-.06,13,0,26-.07,39a29.61,29.61,0,0,1-1.51,10c-2.38,6.64-9,10.41-19.41,11.53a123.93,123.93,0,0,1-27.16,0c-11.43-1.26-18.62-5.75-20.64-13.16a30.64,30.64,0,0,1-1-8.1c0-6.58,0-13.15,0-19.73Zm47.4-2c-.42-7.32.45-14.75-.49-22.17-.25-2-1.42-3.26-4.63-3.52a67.51,67.51,0,0,0-13.26-.08c-5.46.61-7,1.64-7,5.24,0,10.28-.16,20.57.06,30.85.1,4.92-.62,9.86.68,14.76.55,2.06,1.91,3.7,5.16,4.31a34,34,0,0,0,8.88.64c7.37-.52,9.52-2.07,10.09-6.81C306,124.55,305.2,116.84,305.59,109Z"/><path class="cls-1" d="M423.82,119.71c2.32.26,6-1.23,7.77.58,1.62,1.66.42,5.29.45,8,.06,5.31.82,6.18,6,6.91,3.79.53,7.51-.05,11.24-.54a3.39,3.39,0,0,0,3.12-3.5c.17-6.35,1.09-12.69.42-19.06-.51-4.8-1.21-5.24-5.89-6-5.68-.86-11.43,0-17.11-1.44-7.26-1.84-12.5-5.67-14.11-13.1a65.22,65.22,0,0,1-.33-28.29c1.65-7.38,6.23-12.17,13.68-14a55.16,55.16,0,0,1,26.87.12c8,2,12,7.63,13.73,15.26.56,2.53.75,5.14,1.09,7.72.22,1.7-.25,2.74-2.28,2.7-4.57-.07-9.15-.06-13.73,0-1.81,0-2.24-.82-2.29-2.47-.18-6.68-.22-6.67-6.73-7.68-3.42-.54-6.79,0-10.16.5-2.33.33-3.21,2.11-3.29,4-.21,5-.22,10-.13,15.07,0,1.83,1.05,3,3.09,3.47a48.05,48.05,0,0,0,9.11.65c5.12.13,10.17.64,15,2.7,6.21,2.67,9.54,7.65,10.39,14,1.3,9.79,1.76,19.63.19,29.48-1.49,9.33-7.14,15-16.49,16.59-8.53,1.48-17,1.57-25.3-.81-7-2-11.25-6.8-12.66-13.93a78,78,0,0,1-1.27-15.26c0-1.37.42-1.93,1.85-1.87C418.46,119.78,420.89,119.71,423.82,119.71Z"/><path class="cls-1" d="M348.84,100V51.52c0-3.62,0-3.63,3.73-3.61,10.13,0,20.28,0,30.41.17a27.83,27.83,0,0,1,12.69,3.11c5.53,3,8.41,7.77,9.62,13.84,1.56,7.83,1.09,15.71.88,23.58a84.12,84.12,0,0,1-.69,9.65c-1.62,11.3-8.72,17.21-20.62,17.32-5,0-10.05.07-15.08,0-1.9,0-2.42.61-2.4,2.48.08,10.59,0,21.17.07,31.76,0,2.06-.5,2.89-2.71,2.81-4.3-.16-8.62-.19-12.92,0-2.46.11-3-.82-3-3.09C348.87,133,348.84,116.49,348.84,100Zm18.57-18.1c0,4.93,0,9.85,0,14.78,0,1.42.26,2.14,1.9,2.1,4.11-.1,8.24.06,12.35-.1,4.41-.16,6.22-2,6.3-6.29q.18-9.81,0-19.61c-.06-4.14-2-6.49-6.05-7.41-4.24-1-8.57-.34-12.85-.43-1.69,0-1.67,1.22-1.66,2.45C367.42,72.2,367.41,77,367.41,81.87Z"/><path class="cls-1" d="M24.39,97.76c0,9.91.08,19.82,0,29.73,0,3.07,1.21,4.89,4,5.87a23.31,23.31,0,0,0,13.92.71,4.12,4.12,0,0,0,3.24-3.43A23.92,23.92,0,0,0,46,126c-.2-6.53-.24-6.52,6.41-6.53,3.24,0,6.48,0,9.72,0,1.24,0,1.84.28,1.87,1.68a67,67,0,0,1-1.38,16c-1.69,7.65-6.7,12.24-14.17,14a54,54,0,0,1-27.73-.36c-9-2.64-13.51-8.69-14.51-18.19-1-9.15-.63-18.31-.62-27.47,0-11.85-.3-23.7.2-35.55A40.45,40.45,0,0,1,7.64,58.32C10,51.35,15,47.34,22,45.84c9.16-2,18.36-2.11,27.45.56,7.84,2.31,12,7.88,13.49,15.69A41.93,41.93,0,0,1,64,70.88c0,1.51-.5,2.19-2.09,2.17q-7.21-.09-14.44,0c-1.47,0-2-.59-1.93-2,.26-9.61-2.37-8-9.31-9-2.68-.39-5.35.26-8,.51-2.42.22-3.58,1.7-3.61,4.09-.08,5-.18,10-.21,15C24.37,87,24.39,92.39,24.39,97.76Z"/><path class="cls-1" d="M156.81,98.34c0,9.72.09,19.44-.05,29.16,0,3.09,1.22,4.9,4,5.86a23.22,23.22,0,0,0,13.65.77,4.57,4.57,0,0,0,3.61-4c.52-2.88.15-5.71,0-8.56-.07-1.54.52-2.16,2.09-2.14,4.81.06,9.63,0,14.44,0,1.09,0,1.75.18,1.77,1.48A63.19,63.19,0,0,1,194.75,138a16.85,16.85,0,0,1-12.39,12.63,55.85,55.85,0,0,1-28.53.38c-9.79-2.28-14.06-9.19-15.17-18.53a105.25,105.25,0,0,1-.7-11.9q-.12-22.65,0-45.28a77.32,77.32,0,0,1,.95-12.43c1.53-9,6.39-15.06,15.54-17a55.6,55.6,0,0,1,27.45.59c7.28,2.11,11.42,7.23,13.19,14.36a35.4,35.4,0,0,1,1.26,10.16c-.07,1.51-.5,2.15-2.09,2.13-4.72-.07-9.44-.06-14.16,0-1.47,0-2.24-.36-2.18-2,.38-9.74-2.62-8-9-9-2.76-.44-5.53.24-8.29.5a3.59,3.59,0,0,0-3.53,3.56,87.33,87.33,0,0,0-.24,9.43C156.8,83.15,156.81,90.75,156.81,98.34Z"/><path class="cls-1" d="M91.37,130.27c0-6.11-.08-12.23,0-18.33a6.54,6.54,0,0,0-2.29-5.57c-6.92-6.14-12.07-13.49-14.66-22.46-2-7.08-2.49-14.37-2.62-21.68-.1-5.09,0-10.19-.06-15.28,0-1.7.28-2.52,2.23-2.47,4.63.13,9.26.1,13.89,0,1.83,0,2.42.68,2.37,2.45-.13,5.64-.31,11.29-.19,16.93.19,9.31,2,18.18,7.84,25.82,2.53,3.33,2.67,3.27,5.28.14,6.27-7.52,7.81-16.52,8.48-25.86.42-5.93,0-11.83-.23-17.74,0-1.27.37-1.7,1.47-1.7,5.18,0,10.37,0,15.55,0,1.12,0,1.7.47,1.7,1.66,0,13,.43,25.93-3.44,38.52-2.63,8.56-7.8,15.47-14.3,21.44A7.07,7.07,0,0,0,110,112c.11,12.59,0,25.18.1,37.78,0,2.15-.48,2.91-2.74,2.82-4.53-.18-9.08-.15-13.61,0-2,.06-2.48-.64-2.45-2.55C91.44,143.42,91.37,136.84,91.37,130.27Z"/><path class="cls-1" d="M206.7,98.43c0-16.85.06-33.71-.06-50.56,0-2.71.75-3.54,3.43-3.4,4.16.21,8.34.2,12.5,0,2.4-.12,2.93.76,2.92,3q-.09,41.54,0,83.07c0,4.31,0,4.31,4.42,4.31,6.58,0,13.15.1,19.73,0,2.38-.06,3,.76,3,3-.14,4.07-.09,8.14,0,12.22,0,1.7-.41,2.5-2.33,2.49-13.71-.06-27.41-.08-41.12,0-2.41,0-2.42-1.28-2.41-3Q206.71,124,206.7,98.43Z"/><path class="cls-2" d="M295.12,26.06C309.94,26.4,325,33.18,337,46.63a4.91,4.91,0,0,1,1.6,4.12,4,4,0,0,1-2.7,3.41,4.07,4.07,0,0,1-4.45-.89c-.85-.81-1.58-1.75-2.4-2.61a51.06,51.06,0,0,0-74.18-.12c-.63.65-1.22,1.33-1.83,2-2,2.19-4.51,2.53-6.44.89s-2-4.31.05-6.64A59.1,59.1,0,0,1,261.16,34.6C270.63,29,280.88,26.05,295.12,26.06Z"/><path class="cls-2" d="M321,65.4c-1.62.07-2.7-1.22-3.84-2.47a34,34,0,0,0-39.36-8.15,35.68,35.68,0,0,0-11.91,9,4.29,4.29,0,0,1-6.29.54c-1.76-1.62-1.82-4.1-.13-6.19.22-.27.44-.53.68-.79,6.77-7.4,15.05-12.16,25-13.6,15.3-2.22,28.27,2.46,38.78,13.84A5.19,5.19,0,0,1,325.6,61,4.26,4.26,0,0,1,321,65.4Z"/><path class="cls-2" d="M351.23,35a5.24,5.24,0,0,1-3.32,4.31,6,6,0,0,1-6.26-1.51,65.22,65.22,0,0,0-13.6-11.14,67.84,67.84,0,0,0-43.66-9.49A65.49,65.49,0,0,0,243,37.59a6.08,6.08,0,0,1-6.52,1.73,5.2,5.2,0,0,1-3.29-4.94,5.75,5.75,0,0,1,1.87-3.46,76,76,0,0,1,34.39-20.87,79.71,79.71,0,0,1,37.4-1.91C323.94,11.3,338.22,19,349.59,31.21A5,5,0,0,1,351.23,35Z"/></svg>