<?xml version="1.0" encoding="utf-8"?>
<!-- Generator: Adobe Illustrator 25.3.0, SVG Export Plug-In . SVG Version: 6.00 Build 0)  -->
<svg version="1.1" id="Capa_1" xmlns="http://www.w3.org/2000/svg" xmlns:xlink="http://www.w3.org/1999/xlink" x="0px" y="0px"
	 viewBox="0 0 73 72" style="enable-background:new 0 0 73 72;" xml:space="preserve">
<style type="text/css">
	.st0{fill:#213A7D;}
	.st1{fill:#126AA7;}
	.st2{fill:none;}
</style>
<path class="st0" d="M31.7,52.4c0,2.9,0,5.9,0,8.8c0,0.9,0.5,1.4,1.6,1.7c1.8,0.5,3.6,0.6,5.5,0.2c0.7-0.1,1.1-0.5,1.3-1
	c0.1-0.5,0.2-0.9,0.2-1.4c-0.1-1.9-0.1-1.9,2.5-1.9c1.3,0,2.5,0,3.8,0c0.5,0,0.7,0.1,0.7,0.5c0,1.6-0.1,3.2-0.5,4.7
	c-0.7,2.3-2.6,3.6-5.6,4.1c-3.6,0.6-7.3,0.7-10.9-0.1c-3.5-0.8-5.3-2.6-5.7-5.4c-0.4-2.7-0.2-5.4-0.2-8.1c0-3.5-0.1-7,0.1-10.5
	c0.1-1.1,0.2-2.2,0.7-3.3c0.9-2.1,2.9-3.2,5.6-3.7c3.6-0.6,7.2-0.6,10.8,0.2c3.1,0.7,4.7,2.3,5.3,4.6c0.2,0.9,0.4,1.7,0.4,2.6
	c0,0.4-0.2,0.6-0.8,0.6c-1.9,0-3.8,0-5.7,0c-0.6,0-0.8-0.2-0.8-0.6c0.1-2.8-0.9-2.4-3.7-2.7c-1-0.1-2.1,0.1-3.1,0.2
	c-0.9,0.1-1.4,0.5-1.4,1.2c0,1.5-0.1,3-0.1,4.4C31.6,49.2,31.7,50.8,31.7,52.4"/>
<path class="st1" d="M37.5,15.1c8.1,0.2,16.3,3.9,22.9,11.2c0.6,0.6,1,1.3,0.9,2.3c-0.1,0.9-0.6,1.5-1.5,1.9
	c-0.9,0.3-1.7,0.2-2.4-0.5c-0.5-0.4-0.9-1-1.3-1.4C45,16.9,26.6,16.9,15.5,28.5c-0.3,0.4-0.7,0.7-1,1.1C13.4,30.8,12,30.9,11,30
	c-1.1-0.9-1.1-2.4,0-3.6c2.3-2.6,4.9-4.9,7.9-6.7C24.1,16.7,29.7,15.1,37.5,15.1"/>
<path class="st1" d="M51.6,36.6c-0.9,0-1.5-0.7-2.1-1.4c-5.5-6-14.1-7.8-21.5-4.5c-2.5,1.2-4.7,2.8-6.5,4.9c-1,1.1-2.5,1.2-3.4,0.3
	c-1-0.9-1-2.2-0.1-3.4c0.1-0.1,0.2-0.3,0.4-0.4c3.7-4,8.2-6.6,13.7-7.4c8.4-1.2,15.5,1.3,21.2,7.6c0.5,0.5,0.9,1.1,0.9,1.9
	C54.2,35.6,53.1,36.6,51.6,36.6"/>
<path class="st1" d="M68.1,20c0,0.9-0.8,2-1.8,2.4c-1.1,0.4-2.5,0.1-3.4-0.8c-2.2-2.3-4.6-4.4-7.4-6.1c-7.3-4.4-15.2-6.1-23.9-5.2
	C22.5,11.2,15,15.1,9,21.4c-1,1-2.4,1.4-3.6,0.9c-1.1-0.4-1.9-1.6-1.8-2.7c0.1-0.8,0.5-1.3,1-1.9C9.7,12.3,16,8.5,23.4,6.3
	c6.7-2,13.6-2.3,20.4-1c9.3,1.7,17.1,6,23.4,12.6C67.8,18.5,68.2,19.1,68.1,20"/>
<line class="st2" x1="-12.1" y1="1063" x2="-12.1" y2="-17"/>
<line class="st2" x1="-12.1" y1="1063" x2="-12.1" y2="-17"/>
</svg>
